Coordinates
version=1
nRows=22
nColumns=24
inDegrees=yes

Units are S.I. units (second, meters, Newtons, ...)
Angles are in degrees.

endheader
time	pelvis_tilt	pelvis_list	pelvis_rotation	pelvis_tx	pelvis_ty	pelvis_tz	hip_flexion_r	hip_adduction_r	hip_rotation_r	knee_angle_r	ankle_angle_r	subtalar_angle_r	mtp_angle_r	hip_flexion_l	hip_adduction_l	hip_rotation_l	knee_angle_l	ankle_angle_l	subtalar_angle_l	mtp_angle_l	lumbar_extension	lumbar_bending	lumbar_rotation
      0.97500000	      7.74213839	     -7.51196250	    -12.21569043	     -0.61323549	      0.97765203	      0.07341516	    -22.88834902	     -0.17346633	     -7.27044378	    -13.20847850	     11.71681756	     18.03949693	      4.00160085	     17.21247643	    -11.71123204	    -30.16089229	     -9.23587015	     -5.05046131	     -3.07777711	      8.37450289	    -20.10988855	     13.82733567	     52.28588222
      0.98000000	      7.72900835	     -7.49001815	    -12.33742417	     -0.60645692	      0.97669511	      0.07260887	    -23.13342848	     -0.39120871	     -7.24319745	    -13.46248550	     11.71578394	     17.90187082	      4.19501004	     17.23076864	    -11.70748083	    -29.70440475	     -9.89683140	     -5.34046444	     -3.76633767	      8.43437238	    -20.09603977	     13.70283273	     52.31939319
      0.98500000	      7.74578794	     -7.45129315	    -12.45450821	     -0.59966324	      0.97583819	      0.07176745	    -23.38862088	     -0.63530296	     -7.22137851	    -13.73423520	     11.54860438	     17.74566214	      5.50742583	     17.21020711	    -11.67980286	    -29.31536393	    -10.54134033	     -5.84984175	     -4.48518397	      9.37538838	    -20.11644725	     13.55544836	     52.37790863
      0.99000000	      7.72796094	     -7.41065202	    -12.55431234	     -0.59287506	      0.97502682	      0.07088229	    -23.57950587	     -0.86351203	     -7.15695409	    -14.06326305	     11.46834214	     17.49996957	      5.70676291	     17.23995717	    -11.65636828	    -28.91319147	    -11.21803774	     -6.26636049	     -5.16050241	      9.38190927	    -20.09341254	     13.41813883	     52.39915130
      0.99500000	      7.74272138	     -7.34388419	    -12.64522270	     -0.58604940	      0.97434336	      0.06995311	    -23.78047070	     -1.12859396	     -7.12222724	    -14.40960332	     11.16729911	     17.26042491	      7.36848371	     17.22532515	    -11.59614703	    -28.57718312	    -11.85923553	     -6.89568656	     -5.88864122	     10.32117958	    -20.09918817	     13.24931612	     52.43002587
      1.00000000	      7.73838860	     -7.27846099	    -12.73538126	     -0.57924521	      0.97374680	      0.06900638	    -23.92902851	     -1.38255256	     -7.01049274	    -14.82145628	     11.03817712	     16.94459939	      7.50402433	     17.23926330	    -11.54853121	    -28.26940289	    -12.53257910	     -7.39199738	     -6.54980685	     10.27523719	    -20.08965833	     13.08639012	     52.45664857
      1.00500000	      7.74129972	     -7.17735592	    -12.77641316	     -0.57237855	      0.97323354	      0.06796001	    -24.06039071	     -1.65971482	     -7.00143206	    -15.24589972	     10.54653049	     16.58358619	      9.71548822	     17.25703847	    -11.45005210	    -27.95622146	    -13.19154063	     -8.05001969	     -7.25752705	     11.26296255	    -20.06420349	     12.90136147	     52.44335734
      1.01000000	      7.74336001	     -7.08356646	    -12.83658983	     -0.56553644	      0.97284569	      0.06693348	    -24.15326505	     -1.93248816	     -6.87664045	    -15.75442404	     10.30295061	     16.19548559	      9.82693922	     17.26989115	    -11.37277841	    -27.70521473	    -13.87417797	     -8.55091510	     -7.85868529	     11.19624149	    -20.05026378	     12.71673832	     52.45318179
      1.01500000	      7.74308186	     -6.97147476	    -12.83552339	     -0.55863044	      0.97252965	      0.06580516	    -24.22549696	     -2.20241891	     -6.85469326	    -16.26020203	      9.63456607	     15.71625831	     12.52875656	     17.30513653	    -11.26455479	    -27.43638872	    -14.56658367	     -9.14348231	     -8.49176194	     12.04100136	    -20.01338737	     12.53639936	     52.41932935
      1.02000000	      7.75439621	     -6.85748546	    -12.85096080	     -0.55172695	      0.97236102	      0.06467595	    -24.26287375	     -2.48175038	     -6.75493317	    -16.87355105	      9.27737316	     15.26276964	     12.69908675	     17.31590465	    -11.15833764	    -27.22574223	    -15.27285121	     -9.57648791	     -9.01805626	     11.98797351	    -19.99569248	     12.34982550	     52.41196700
      1.02500000	      7.75805897	     -6.73146719	    -12.82192122	     -0.54477104	      0.97224960	      0.06349394	    -24.27147851	     -2.75502518	     -6.70842277	    -17.48209485	      8.42614857	     14.67733175	     15.75731353	     17.34005078	    -11.03128059	    -27.01133364	    -15.97276737	    -10.05203172	     -9.51604053	     12.64743472	    -19.95069716	     12.16190519	     52.33343682
      1.03000000	      7.78913707	     -6.59960048	    -12.79548574	     -0.53779201	      0.97228048	      0.06229952	    -24.26550072	     -3.04185516	     -6.62991135	    -18.17410227	      7.69598797	     14.09009161	     17.57900346	     17.31620505	    -10.88725239	    -26.83660880	    -16.66361394	    -10.36545191	     -9.92731991	     12.75107149	    -19.93864692	     11.96562595	     52.30623827
      1.03500000	      7.80928788	     -6.46976659	    -12.74392563	     -0.53079215	      0.97239804	      0.06107520	    -24.20583326	     -3.31299605	     -6.54987328	    -18.96099864	      7.11500676	     13.59394466	     17.68794236	     17.29540669	    -10.73617461	    -26.67180998	    -17.33980563	    -10.63457110	    -10.27976171	     12.73172278	    -19.90747045	     11.78084159	     52.23170934
      1.04000000	      7.80097116	     -6.33789008	    -12.66069313	     -0.52375913	      0.97251815	      0.05979558	    -24.08251599	     -3.56845807	     -6.50615344	    -19.76640378	      6.09838248	     12.83528196	     21.06816032	     17.31138833	    -10.57910355	    -26.52156867	    -18.03159780	    -10.83094945	    -10.59088415	     13.23529196	    -19.83497777	     11.61959916	     52.14038019
      1.04500000	      7.85668936	     -6.22690507	    -12.54351109	     -0.51670685	      0.97283825	      0.05847461	    -23.99794070	     -3.80847339	     -6.48982692	    -20.62727366	      5.06705681	     12.17272626	     23.04517492	     17.22398577	    -10.40518905	    -26.36304037	    -18.65706523	    -10.95921853	    -10.80943450	     13.23255418	    -19.84238961	     11.48136416	     52.09643894
      1.05000000	      7.90400880	     -6.10655725	    -12.40244209	     -0.50961192	      0.97322056	      0.05712177	    -23.86091611	     -4.04616353	     -6.46472321	    -21.58581498	      4.22460842	     11.64059092	     23.13092835	     17.12487423	    -10.20189127	    -26.21635859	    -19.24309308	    -10.99864636	    -11.01046617	     13.23129439	    -19.81696447	     11.33958867	     51.94182321
      1.05500000	      7.92995444	     -5.99969093	    -12.25798094	     -0.50254837	      0.97362869	      0.05578370	    -23.64910576	     -4.26292736	     -6.45282726	    -22.57813639	      2.93820677	     10.74480250	     26.63412992	     17.03279029	    -10.01291325	    -26.09733812	    -19.81306910	    -10.97059067	    -11.14648259	     13.35171687	    -19.78168817	     11.22693144	     51.87964201
      1.06000000	      7.98009842	     -5.90546291	    -12.04077037	     -0.49543076	      0.97415157	      0.05434806	    -23.44013487	     -4.44765599	     -6.48141076	    -23.64974249	      1.89705168	     10.21284035	     26.67986622	     16.89265405	     -9.79047423	    -25.91084538	    -20.31831104	    -10.87077099	    -11.27092244	     13.35350258	    -19.74808392	     11.14100212	     51.65788456
      1.06500000	      8.00830542	     -5.81840174	    -11.84633730	     -0.48836817	      0.97471441	      0.05295091	    -23.14377274	     -4.62640254	     -6.48659649	    -24.76548842	      0.48389400	      9.25496329	     29.83081878	     16.74782107	     -9.57919083	    -25.77154214	    -20.79246510	    -10.68683084	    -11.33542575	     13.15691570	    -19.70954496	     11.07467713	     51.56859690
      1.07000000	      8.05123892	     -5.74868915	    -11.56776551	     -0.48127466	      0.97534253	      0.05145889	    -22.83831618	     -4.75989757	     -6.55817207	    -25.96661665	     -0.68032010	      8.59985728	     29.91910388	     16.57672133	     -9.34248713	    -25.53900201	    -21.21608158	    -10.45570188	    -11.44019899	     13.15557600	    -19.66229803	     11.04036897	     51.31164745
      1.07500000	      8.08532117	     -5.68071826	    -11.33125170	     -0.47421958	      0.97605685	      0.05002416	    -22.46563773	     -4.90614625	     -6.56393353	    -27.18359725	     -2.18528504	      7.73141626	     32.18537687	     16.36920256	     -9.11267163	    -25.38861689	    -21.58150780	    -10.15673142	    -11.45095747	     12.74666945	    -19.61716442	     11.00771354	     51.12166969
      1.08000000	      8.12163904	     -5.62205845	    -11.04054918	     -0.46716263	      0.97682061	      0.04852159	    -22.05600041	     -5.02587866	     -6.62011172	    -28.48622069	     -3.50528392	      7.12557136	     32.09964065	     16.14109472	     -8.86322149	    -25.16867152	    -21.88292894	     -9.91679077	    -11.49216047	     12.75003834	    -19.55961807	     11.00034798	     50.83976450
